<svg xmlns="http://www.w3.org/2000/svg" viewBox="0 0 329.98 504.65"><defs><style>.cls-1{fill:#0866b5;}.cls-2{fill:#fdd2b1;}.cls-3{fill:#fff;}.cls-4{fill:#16a944;}.cls-5{fill:#8c502e;}.cls-6{fill:#fadf00;}.cls-7{fill:#c63137;}</style></defs><g id="katman_2" data-name="katman 2"><g id="katman_1-2" data-name="katman 1"><path d="M329.17,234.37a103.24,103.24,0,0,0-8.1-19.37c-3.77-6.66-10.65-9.62-17.93-11.18-11-2.36-21.62-.88-31.89,3.48a6.13,6.13,0,0,1-5.05.38,16.65,16.65,0,0,0-14.84,1.07,6.9,6.9,0,0,1-4.6.77c-4.33-.64-8.67-1.25-13-1.56-15.9-1.12-31.81-1.84-47.72-.11a5.63,5.63,0,0,1-3-.19,38.22,38.22,0,0,0-9.13-2.9c-.9-.15-1.42-.6-1.21-1.54.48-2.19.9-4.42,2.54-6.29a39.57,39.57,0,0,0,4.36,2.12c3.22,1.11,6.66,2.26,9.41-.74a5.22,5.22,0,0,1,4.27-1.91c4.39-.08,6.28-2.17,5.92-6.61-.2-2.5-.82-5-1.24-7.46-.58-3.4-1.4-6.78-.66-10.27.44-2.08,1.11-3.16,3.75-2.57,8.65,1.9,16.79.77,23.75-5.21A32.84,32.84,0,0,0,236,144.7a16.16,16.16,0,0,1,5.26-9.63c7.23-6.88,11-15.57,10.34-25.64-.77-11.57-7.41-19-18-23.12a4.18,4.18,0,0,1-3-4,176.18,176.18,0,0,0-6.12-30.93c-3.75-12.7-8.8-24.8-17.57-35C196.28,4,183-2.33,166.56.78,150.42,3.84,139,12.94,134.47,29.33c-.38,1.34-1.12,1.45-2.27,1.2a43.55,43.55,0,0,0-12.58-.7c-5.25.42-10.07,2.05-13.94,5.8a54.44,54.44,0,0,0-3.62,4.29L99.69,38.3a33.18,33.18,0,0,0-19.46-6.08c-10.82,0-20.37,3.78-28.76,10.24C36.14,54.27,26.27,69.06,28.59,89.4c1.66,14.58,8.64,25.73,22.8,31.4a2.68,2.68,0,0,1,1.94,3c-.16,5.84,2.37,10.57,7.44,13.11,3.87,1.95,5.77,4.81,7,8.56.22.63.49,1.25.76,1.87,10.1,23.8,19.29,48,30.77,71.19a2.58,2.58,0,0,1-.65,3.51,51.25,51.25,0,0,0-7.74,9.63c-.45.71-.84,1.51-1.71,1.8-5.83,1.93-8.14,6.74-9.64,12.08-1.59,5.69-1.34,11.51-.75,17.32a6.83,6.83,0,0,1-.11,3.24c-3.89,10.38-3.51,21.14-2.79,31.93.21,3.26,1,6.42,1.42,9.65a14,14,0,0,1-4.72.33,12,12,0,0,0-5.85,1.31,4.53,4.53,0,0,1-4.1.19A67.8,67.8,0,0,0,45,305.63c-20.24-1.77-38,11.81-41.12,31.91C3,343.48,2.36,349.4.84,355.3c-2.47,9.57.81,18.31,6.22,26.24,7.42,10.86,17.42,18.9,28.56,25.64a16.7,16.7,0,0,1,4.18,3.55c7.82,9.13,17.39,15.62,29.12,18.62,11.36,2.9,20.24-.65,26.52-10.48a4.56,4.56,0,0,1,2.66-2.09c8.54-2.67,13.46-8.66,15.2-17.26.54-2.69,1.08-4.87,3.74-6.5s3.89-4.57,5.09-7.39a5.62,5.62,0,0,1,1.3-2.51c.88.33,1.15,1,1.53,1.52a466.57,466.57,0,0,0,42,51.13,6.11,6.11,0,0,1,1.68,3.81c.5,4.62,2.27,8.69,6.12,11.47a4.72,4.72,0,0,1,2,4.49,76,76,0,0,0,3.22,24.7c8.57,26.65,34.46,29,49.51,18.81a4.48,4.48,0,0,1,2.61-.76c7.67,0,13.08-3.74,16.75-10.28a42.45,42.45,0,0,0,5-17.87,79,79,0,0,0-5.39-35.41c-.47-1.19-.63-2.1.53-3.1,1.62-1.38,2.11-3.46,2.31-5.47a39.32,39.32,0,0,0-6-25.83c-2.51-3.89-5.87-6.72-10.71-7.27a2.21,2.21,0,0,1-1.74-.85c-3.14-4.4-7.74-5.36-12.72-5.28a7.08,7.08,0,0,1-4.71-1.33A8.22,8.22,0,0,0,208.7,384c-2.5.54-3.63-.58-4.82-2.46-5.94-9.41-11.89-18.8-18-28.06-1.4-2.11-1.26-3.33.31-5.18,10.75-12.72,14.58-27.41,12.32-43.83a125,125,0,0,0-7-26.31,7.17,7.17,0,0,1-.66-3.92,57.52,57.52,0,0,0,.82-14.35c-.15-2.12.59-2.74,2.59-2.94,12.72-1.29,25.42-.58,38.13.18,1.26.08,1.69.85,2.12,1.82a13.25,13.25,0,0,0,9.93,8.14,2.39,2.39,0,0,1,2.21,2,28.3,28.3,0,0,0,8,13c7.46,7.36,17,10.15,26.41,4.61a2.82,2.82,0,0,1,3,.15,28.85,28.85,0,0,0,16,2.64c8.52-.76,14-5.5,15.84-13.83a3.7,3.7,0,0,1,2.2-2.8,13.17,13.17,0,0,0,6.61-7,21.77,21.77,0,0,0,1.52-9.9,11.15,11.15,0,0,1,1.1-5.6C329.68,245.26,330.89,239.72,329.17,234.37Z"/><path class="cls-1" d="M185.45,269.72a1.83,1.83,0,0,1,.58,1.92c-.94,4.17.34,7.88,1.93,11.7,5.07,12.2,7.48,24.89,5.1,38.06C189.39,341.68,177,354,157.43,359.47a64.49,64.49,0,0,1-20.28,2.2c-.81,0-1.7.12-2.41-.58-.14-1.21.75-2,1.31-2.89,1.86-2.91,3.78-5.78,5.65-8.69.35-.54.91-1.13.44-1.83a2,2,0,0,0-2.06-.68c-2.35.28-3.91,1.87-5.41,3.47a149.81,149.81,0,0,0-10.87,13.62c-.35.48-.67,1-1.06,1.42-2.82,3.18-4.58,6.63-4.36,11.14a16.61,16.61,0,0,1-2.39,8.69c-1.81,3.28-4.09,3.58-6.58.78-3.15-3.54-4.8-7.92-6.33-12.29-3.29-9.38-6.37-18.83-9.6-28.24-3.29-9.62-8.88-17.92-15.23-25.73A57,57,0,0,0,73.11,315c4.43-2.78,8.57-.1,12.86.25-.14-1.89-1.37-2.86-2.36-3.92-.81-.86-1.15-1.6-.14-2.55,9.12-8.56,18.85-16.19,31.25-19.35,14-3.59,26.77,1.66,35.25,14.18.54.8.84,1.83,2.08,2.48a16,16,0,0,0-2-6.33c-7.55-15.12-24-21.29-40.67-15.31-9.53,3.42-17.57,9.18-25.1,15.77-.69.6-1.24,1.39-2.23,1.56-.77-.17-.81-.84-.88-1.39-1.19-9.24-1.67-18.45,1.13-27.55.6-2,1.29-2.94,3.66-2.62,6.15.81,10.79-1.88,14.11-7a40.26,40.26,0,0,0,5.19-12,91.56,91.56,0,0,1,4.78-13,3.83,3.83,0,0,1,4-2.66,74.17,74.17,0,0,1,17,2.5c1.9.48,1.95,1.38,1.18,2.92a53.68,53.68,0,0,0-5.2,14.46c-1.24,6.7-1.19,13.3,2.6,19.32,7.24,11.51,23.21,11.53,30.62.08A30.94,30.94,0,0,0,165,260.51c.08-.87-.21-1.88.68-2.61,1.26.2,1.69,1.32,2.29,2.16a148,148,0,0,1,8.25,13c1,1.74,1.93,2,3.56.75C181.58,272.4,183.22,270.66,185.45,269.72Z"/><path class="cls-2" d="M119,163.18c2.47,1.28,3.22,3.5,3.8,6.07a35.17,35.17,0,0,0,7.31,15.1c6,7.15,13.36,6.56,18-1.51,3.09-5.35,4.41-11.29,5-17.35a6.65,6.65,0,0,1,4.07-6c9.81-4.82,12.75-14,8.47-25.86-.66-.36-1.11.14-1.6.42-6.29,3.71-13.12,4.52-20.25,3.88-2.19-.2-3.81-.75-3.17-3.52a2,2,0,0,0-.61-2.1c-1.36,0-2,1.14-2.91,1.82-10,7.64-20.76,10-32.41,4.46C90.93,132,88.21,116.12,99,106c5.49-5.15,12-5.83,18.84-3.51,6.56,2.21,11.69,6.57,16.44,11.44.68.7,1.2,1.62,2.22,2a1.55,1.55,0,0,0,0-2.11c-1.59-2.23-.51-3.89.73-5.83a26.88,26.88,0,0,0,4.42-18c-.33-2.7-1.14-5.3-3.88-6.35s-5.23.13-7.36,2.07A25.61,25.61,0,0,0,123.52,97c-.31.93-.29,2-1.2,2.88-1.93-.29-3-.92-1.94-3.28,3-6.94,5.68-14.06,10-20.34a16.5,16.5,0,0,1,3.4-3.72c3.42-2.67,6.67-2.06,8.91,1.7.59,1,1.07,2.07,1.74,3.38a9.84,9.84,0,0,0,1-6c-.14-2,.54-2.81,2.57-2.49a54.36,54.36,0,0,1,13.58,3.76c2.06.91,2.55,1.88,1,3.72-1.41,1.65-2.76,3.4-3,5.72,1,.63,1.63-.19,2.31-.52a23.78,23.78,0,0,1,7.67-2.43c4.87-.52,8.59,1.79,10.71,6.66A23.82,23.82,0,0,1,181.83,95c1.23-.06,1.14-1.53,2.48-1.75a27,27,0,0,0,9.13,5.11c3.4,1.07,7,1.08,10.51,1.7.25,2.37-.71,4.38-1.28,6.44-2.36,8.46-7.23,14.66-15.64,17.93-3.7,1.43-6.94,3.71-7.35,8.2-.43,4.77,2,8.1,5.84,10.41s7.76,2,11.38-.66c3.17-2.29,5.49-5.44,8.1-8.31a40.09,40.09,0,0,1,7.09-6.42c7-4.73,19.93-.76,20.31,10.74.43,13.06-9.68,26-22.2,27.71a24.06,24.06,0,0,1-14-2.57,2.5,2.5,0,0,0-3.46.72c-10.32,11.43-18.77,24-24.15,38.52a6.89,6.89,0,0,1-4.89,4.64,43.91,43.91,0,0,1-24.19-.1c-2-.6-4.1-1.52-4.33-4.33,2-.5,4,.74,5.75-.38-.16-1.52-1.27-1.74-2.19-2-13.62-3.3-20.13-13.19-23.86-25.65a71.89,71.89,0,0,1-2.46-11.6c-.11-.91-.47-2,.68-2.44,4.25-1.57,7.14-4.6,9.13-8.88,4.35,3.36,7.42,7.94,12.9,9.26-5.15,3.07-10.8,1.61-16.23,1.9Zm88.48-6.57.06.09-.06-.07c-.17-.83-.31-1.66-.51-2.47-1.72-7,2.69-9,7.6-9.11.42,0,1,.36,1.23-.4-1.83-1.84-4.51-.72-6.71-1.88,2.45-4.06,6.27-5.24,10.46-5.66-.14-.69-.62-.73-1-.86-5-1.91-10.28.34-13.33,5.7C202.06,147.48,202.92,153.1,207.45,156.61Zm-59.21-43.19a25.92,25.92,0,0,0,1.07,8.34c2.56,7.41,9.09,9.48,15.39,4.84a24,24,0,0,0,7.91-10.87c2.65-6.69,3.64-13.53.84-20.39-2.59-6.35-8.61-8-14.26-4.14a18.67,18.67,0,0,0-3.74,3.36A30.56,30.56,0,0,0,148.24,113.42Z"/><path class="cls-3" d="M287.51,276.3c3.91,2.12,4.25,2,6.54-1.82a19.09,19.09,0,0,0-14.33-4.88c-1.19.06-1.61.77-1.51,1.86s-.22,2.49,1.47,2.79c.73.13,1.53-.13,2.17.41.37,5.76-5.24,10.71-11.38,9.81-8.58-1.25-14.19-6.62-18.06-14-4-7.6-4.33-15.79-3.24-24.12-1.27,1.22-1.95,2.86-2.59,6.09a57.63,57.63,0,0,0-.72,8.3c-.12,2.43-.81,2.85-3,1.78-3.61-1.76-4.71-5.13-5.15-8.74-1.11-9,1.12-17.4,4.61-25.54,2.37-5.55,5.48-10.65,10.34-14.44,3.6-2.82,7.55-3.64,11.22-2.27-.91,2.12-3.19,3.41-3.77,6.11a45.36,45.36,0,0,1,24-10.33c10.11-1.16,19.88,0,28.73,5.49,4.31,2.68,7.54,6.24,8,11.62.1,1.11.86,1.8,1.37,2.65,2.69,4.45,4.29,9.14,3.23,14.43a5.59,5.59,0,0,1-1.42,3.21c-2.08-2.32-3.48-5.32-6.77-6.87,1.2,2.86,2.36,5.35,3.31,7.92,1.74,4.74,2.58,9.61,1.32,14.62a11.17,11.17,0,0,1-5.78,7.6c-1.35-3.3-1.57-7-4.49-9.28-.67.75-.17,1.34,0,1.93a27.31,27.31,0,0,1,.62,11.76c-1.42,8-7.43,12.86-15.79,12.67A39,39,0,0,1,287,283.5c-1.57-.44-2.07-1.22-1.43-2.76S286.31,277.65,287.51,276.3Zm-8.14-49.66c2.69,3.11,5.4,5.15,9.17,5.26,1.94,0,2.86-1.27,3-3.05s-.83-2.61-2.46-2.92A18.81,18.81,0,0,0,279.37,226.64Zm-4,10c.61,3.94,1.74,6.85,4,9.21a2.75,2.75,0,0,0,4.23-3.5C281.67,239.77,279,238.14,275.39,236.63Zm6.43-19.31c3.43.83,6.15.83,8.78-.23a2.32,2.32,0,0,0,1.56-2.83,2.1,2.1,0,0,0-2.62-1.78A16.24,16.24,0,0,0,281.82,217.32Z"/><path class="cls-1" d="M139.13,367.45c14.28-.26,27.21-2.74,38.42-11,2-1.45,2.66-.14,3.54,1.1q10.09,14.39,20.16,28.77c.48.69,1,1.34,1.51,2a2.47,2.47,0,0,0,3,1c5.06-1.32,8.24.25,10.32,5.09,2.87,6.69,2.59,13.69,1.44,20.64-2.17,13.14-8.08,24-19.75,31.2a20.94,20.94,0,0,1-11,3.3c-7.71,0-12.43-4.11-13.05-11.76a8.07,8.07,0,0,0-2.61-5.44c-14.78-14.75-27.34-31.34-39.55-48.2-1.88-2.6-3.64-5.27-5.59-7.81-1.17-1.51-.81-2.46.06-4.14C129.24,366.13,134.37,366.47,139.13,367.45Z"/><path class="cls-3" d="M68.47,122.72c-18-2.61-30.21-13.19-33.74-30-3-14.36,1.2-27.06,10.53-38,7.88-9.27,17.83-15.41,30-17.27,8.8-1.34,17,.23,23.71,6.57a4,4,0,0,1,1.56,4,19.34,19.34,0,0,0,.11,5.78c.14,1.06,1,2.68-.61,3.06s-3.72,1-5.15-.79c-.78-1-1.4-2.1-2.11-3.15A14.64,14.64,0,0,0,81.2,45.93c4.62,3,8.14,6.61,10.14,11.85a30,30,0,0,0-10,6.15c-4-4.42-7.77-9-14.23-9.45,0,.94.72,1.07,1.15,1.33a26.72,26.72,0,0,1,8,8,4.67,4.67,0,0,1,.37,5.53c-3.09,5.61-2.48,11.25.93,16.5,1.29,2,.65,2.86-1,3.71a10.06,10.06,0,0,1-2.11.83c-3.16.79-4,.16-4.44-3C68.79,78,64.61,70.75,55.66,66.85a2,2,0,0,0-1.06-.13,44,44,0,0,1,5.59,5.58c4.12,5.44,6.47,11.38,5.3,18.35a12.78,12.78,0,0,1-2,5.14c-2.73,4.08-7.11,4.93-11.19,2.18a21.08,21.08,0,0,1-5.65-6.37,11.77,11.77,0,0,0,7.63,11.08,10.06,10.06,0,0,0,12-4c2.26-3.39,4.31-5.75,8.84-4.53,1.81.48,3.66-.72,4.9-2.15,1.55-1.79,3.47-2.1,5.65-2.21C91,89.55,95.82,88.07,99,83.3a4.73,4.73,0,0,0,.28-.82c-.8.39-1.4.67-2,1s-1.33.73-2,1c-2.86,1.34-5.81,2.33-9,1.77-4.79-.85-7.69-5-7.08-10s3.38-8.74,7.29-11.66a30,30,0,0,1,13.74-5.38c1.13-.18,1.78.11,2.1,1.19,2.41,8.17,6,15.73,11.83,22.05a2.27,2.27,0,0,1,.19,2.6A43.87,43.87,0,0,1,108.57,96a3.38,3.38,0,0,1-2.4,1.64c-10.07,1.27-15,9.29-16.42,17.68a28.49,28.49,0,0,0,1,14c.33,1,.36,1.78-.8,2.25-7.86,3.24-15.88,5.18-24.32,2.5a12.12,12.12,0,0,1-8.1-8c-.74-2.12,0-2.77,2-2.68A29.64,29.64,0,0,0,68.47,122.72Z"/><path class="cls-4" d="M145,34.26a2.46,2.46,0,0,1-.62,0c-5.37-2-5.46-2.22-3.21-7.53,8-19,29.07-26.56,47.66-17.07,10.19,5.2,17.35,13.51,23,23.23,9.36,16.21,13.61,34,15.92,52.38.43,3.42.71,6.87,1.06,10.3a2,2,0,0,0,.67,1.72A8.42,8.42,0,0,0,231,93c.32-2,1.18-2.24,2.95-1.6,9.16,3.33,14.21,11.9,12.86,22.44-.81,6.24-3.13,11.9-7.77,16.36-2.21,2.13-2.71,2-4.34-.48-3.67-5.69-8.79-8.49-15.6-7.71-1.89.21-2.7-.41-3.27-2.18-4.85-15-11.25-29.24-20.35-42.2a119.16,119.16,0,0,0-16.13-18.74c-1.54-1.43-1.44-2.34-.16-3.9,5-6.15,8.51-12.93,8-21.22-.77-13.46-14.94-23.3-27.53-18.92-7.25,2.53-10.94,8.34-13.19,15.29-.39,1.21-.69,2.43-1.05,3.64C145.4,33.92,145.24,34,145,34.26Z"/><path class="cls-2" d="M27.68,350.75c10.07.11,18.36,4.34,25.55,11.09,7.35,6.9,12.67,15.26,17.33,24.09,1.85,3.5,3.63,7,5.25,10.65a36.93,36.93,0,0,0,4.6,6.91A28.46,28.46,0,0,1,85.81,414c1.18,5-.77,8.55-5.77,9.8-8.1,2-15.7.07-22.92-3.65A49.83,49.83,0,0,1,41,406.57a11.2,11.2,0,0,0-2.81-2.47c-10.76-6.91-20-15.38-26.95-26.21a30.63,30.63,0,0,1-3.41-7.31c-2.61-8.34,1.25-15.71,9.65-18.26A34.59,34.59,0,0,1,27.68,350.75Zm18,52.58c7,1.92,22.64.72,26.23-1.94C63,401.62,54.26,401.68,45.69,403.33Z"/><path class="cls-5" d="M221.82,392.86a11.36,11.36,0,0,1,8.52,4c2.27,2.63,3.29,5.83,4,9.17,1.38,6.87.67,13.77.37,20.65a23.58,23.58,0,0,0,.75,7c3.19,12.4,5,24.93,3.33,37.76a42.94,42.94,0,0,1-3.61,12.83c-5.53,11.7-15.69,16.46-28.33,13.51-11.68-2.73-19-10-22.64-21.19a53.06,53.06,0,0,1-2.39-19.19c.05-1.05,0-2.12,1.59-1.9,9.19,1.28,16.87-2.41,23.84-7.74,11.26-8.62,16.29-20.47,16.92-34.39a69.79,69.79,0,0,0-1.72-17.05C222.21,395.38,222.08,394.39,221.82,392.86Z"/><path class="cls-5" d="M8.29,340.67c0-5.21,2.15-9.37,4.94-13.19,9.37-12.87,25.66-18.29,41.63-14.22,12.72,3.25,21.72,10.82,27.81,22.38,6.35,12.07,10.46,25,15.34,37.65,2.57,6.68,4.93,13.47,9.22,19.32,1.12,1.54.93,3.22.55,4.86a22.16,22.16,0,0,1-7.36,11.81c-2,1.7-2.87,1.4-3.4-1.11A29.23,29.23,0,0,0,87.71,392a9.19,9.19,0,0,1-2.26-3.87c-4.73-12.53-10.78-24.31-19.25-34.78C54,338.23,32.82,331.5,15.6,337.29,13.13,338.12,11,339.73,8.29,340.67Z"/><path class="cls-4" d="M243.49,214.64c-.57,1.72-1.78,2.83-2.66,4.15-5.7,8.56-7.87,18.13-8.05,28.26-.09,5-.06,5-5,4.65-11.43-.78-22.87-1.3-34.26.51a28.37,28.37,0,0,0-8.92,2.66,7,7,0,0,0-3.48,3c.73,1.1,1.62.5,2.4.54,1,.05,2.38-.75,2.89.67s.79,2.94-.43,4a39.5,39.5,0,0,1-6.46,5.12c-1.26-.49-1.6-1.62-2.18-2.51-3.11-4.71-6-9.54-9.75-13.81a4.59,4.59,0,0,1-1.07-4c1.53-9.25,3.69-18.3,7.88-26.79,2.78-5.63,6.93-8.63,13.4-9.06a283.45,283.45,0,0,1,35.58.37c5.71.34,11.41.89,17.12,1.34A4.72,4.72,0,0,1,243.49,214.64Z"/><path class="cls-4" d="M199.6,94c-1.37,1-2.64.56-3.84.32a21.72,21.72,0,0,1-5.61-2.24c-3.63-1.86-5.93-4.39-4.79-8.84a6.86,6.86,0,0,0,.09-1.51c.11-7.6-3-11.14-10.65-11.37a7.84,7.84,0,0,1-6.31-3.26C162,59.43,155,52.33,146.07,47.34a14.4,14.4,0,0,0-5.56-2.09c5,3.82,9.36,7.44,13.5,11.29a59.6,59.6,0,0,1,8.73,9.78c.64.93,1.49,1.87,1,3.18-1,.41-1.69-.16-2.43-.48-5.13-2.19-10.3-4.23-16-4-1.28.06-2-.82-2.76-1.56-3.66-3.39-7.22-3.1-10.32.87a22.4,22.4,0,0,0-3,5.8c-1.85,4.7-4.59,8.94-6.91,13.34-1.76-.12-2.59-1.3-3.47-2.24a58.92,58.92,0,0,1-11.24-17,27.51,27.51,0,0,1-2-15.58c1.76-10.52,9.26-16,19.85-14.79A61.15,61.15,0,0,1,150,42.68c19.81,11.94,36.23,27.38,47.89,47.57.5.88,1,1.78,1.41,2.68A7.73,7.73,0,0,1,199.6,94Z"/><path class="cls-4" d="M129.86,202a7.21,7.21,0,0,1-3.8,3.3c-2.6,1.18-5.26,2.26-7.92,3.32a42.47,42.47,0,0,0-11.69,6.92,3,3,0,0,1-2.33,1C92.34,192.12,82.48,166.66,72,141.23a10.48,10.48,0,0,1,1.88-.56,52.68,52.68,0,0,0,18.1-4.3c1.59-.67,4.82,2.44,4.84,4.57,0,1.77-.15,3.55-.07,5.31.25,6.12,2.9,10.86,8.42,13.71a4.74,4.74,0,0,1,2.68,3.91c1.59,9.65,4.49,18.85,10,27,2.85,4.24,6.26,7.93,10.95,10.24A5.78,5.78,0,0,1,129.86,202Z"/><path class="cls-1" d="M178.06,210a59.78,59.78,0,0,0-6.06,7.91c-5.58,9.25-7.54,19.57-9,30.05-.79,5.76-1.34,11.56-2.68,17.23a21.69,21.69,0,0,1-2.75,7c-3.22,4.93-7.71,7.54-13.64,7s-10-3.85-12.33-9.19c-2.25-5.11-1.92-10.39-.46-15.61,2.74-9.8,8.36-18,14.81-25.63a106.34,106.34,0,0,1,20.89-19.36A9,9,0,0,1,178.06,210Zm-19.51,47.8c-.05-.82-.06-1.84-.2-2.84-.8-5.88-4.24-9.9-9.32-10.94-4.93-1-10.07,1.46-12.93,6.39a20.92,20.92,0,0,0-2.68,13.38,10.73,10.73,0,0,0,7.25,9.23,11.19,11.19,0,0,0,12-2.07C156.57,267.56,158.38,263.14,158.55,257.83Z"/><path class="cls-2" d="M5.16,356.25a11.65,11.65,0,0,1,2.46-8.57c4.07-5.37,9.9-7.48,16.28-8,18-1.5,32,6.22,43.09,19.8,7.06,8.62,11.93,18.52,16.2,28.73a31.32,31.32,0,0,0,4.39,7.59c4.09,5.18,6.58,11,5.15,17.82-.46,2.23-1.29,4.31-3.65,5.35a4.84,4.84,0,0,1-1-3.17,26.12,26.12,0,0,0-6.17-14.41,24,24,0,0,1-4-7.22c-4.67-12.33-10.66-23.87-20.51-33-8.35-7.69-18-12.64-29.53-13.46-8.31-.6-15.69,1.5-21.42,8A1.22,1.22,0,0,1,5.16,356.25Z"/><path class="cls-3" d="M175.36,55.15c-2.79-2.42-5.33-4.72-8-6.89A73.83,73.83,0,0,0,150,37.09c-1.77-.77-2.14-1.8-1.71-3.54,1.2-4.83,3-9.34,6.85-12.7a15.67,15.67,0,0,1,16.73-3.13c6.72,2.48,10.87,7.41,11.82,14.51C184.9,41.15,180.89,48.35,175.36,55.15Z"/><path class="cls-2" d="M236.59,491.5a51.2,51.2,0,0,0,6.13-19.42c1.35-11.62-.08-23-2.76-34.31-1.09-4.58-1.94-9-1.44-13.85a61.41,61.41,0,0,0-2.5-25.68,4.76,4.76,0,0,1,4.23,2.17,31.09,31.09,0,0,1,6.1,25.92,1.39,1.39,0,0,1-.27.7c-2.58,3.05-1.29,6.11-.33,9.36,3.89,13.06,5.77,26.32,3.26,39.9A24.64,24.64,0,0,1,244.68,487,10.13,10.13,0,0,1,236.59,491.5Z"/><path class="cls-4" d="M113.9,230.9a83.85,83.85,0,0,1,11.19-15.85c1.89-2,4-3.79,4.44-6.79a3.14,3.14,0,0,1,1.48-2.12c6.66,7.28,15.58,6.55,24.61,6.51a12.56,12.56,0,0,1-3.06,3.6c-5.53,5.31-11,10.69-15,17.3-.55.9-1.2,1.62-2.45,1.22a82.12,82.12,0,0,0-19.61-3.36A8.57,8.57,0,0,1,113.9,230.9Z"/><path class="cls-1" d="M82.4,261.18c5.21,2.53,8.5,0,11.34-3.6,3.39-4.33,5.76-9.1,5.88-14.73a12.25,12.25,0,0,0-2.87-8.66c-.87-1-1.31-1.89-.36-3.1C103.51,222,112,214.63,122.7,210a2.18,2.18,0,0,1,2.42-.1c-1,1.1-1.86,2.18-2.81,3.19a79.3,79.3,0,0,0-20,35.7,40.66,40.66,0,0,1-3.81,9.59,16.27,16.27,0,0,1-8.26,7.47C86.42,267.41,83.45,265.76,82.4,261.18Z"/><path class="cls-5" d="M207.23,109.58a85.23,85.23,0,0,1,4.44,12.47,1.69,1.69,0,0,1-.84,2.14c-4.65,2.69-7.78,6.83-10.9,11.07-3.82,5.19-8.8,6.22-13.35,3.1-4.26-2.93-4.26-8.1.43-10,8.6-3.43,13.88-10.1,18.72-17.41a10.5,10.5,0,0,1,.73-1C206.55,109.85,206.74,109.82,207.23,109.58Z"/><path class="cls-5" d="M185.64,191.16c.11.61.13.86.2,1.1.4,1.41,1.47,2.91,0,4.2s-3.18.82-4.79.24c-4.23-1.51-4.89-3.14-2.69-6.9a131.46,131.46,0,0,1,13.1-17.86,8.74,8.74,0,0,1,1.09-.94c.24.17.48.26.49.35a80.68,80.68,0,0,0,2.9,16.58c1.06,3.93-1.45,6.15-5.43,5.29C188.86,192.86,187.49,191.84,185.64,191.16Z"/><path class="cls-6" d="M81.33,251c.3-6.24,3.32-11,8.26-14.55,2.19-1.59,4.51-1.08,6.23,1a6.77,6.77,0,0,1,1.43,3.18c.93,5-3.4,15-7.73,17.8-2.62,1.7-5.27,1.11-6.87-1.62A10.5,10.5,0,0,1,81.33,251Zm6.76,2.7c3.4-1.64,5.74-5.77,5.63-10.12-.84,1.92-1.59,3.66-2.38,5.4a26.29,26.29,0,0,1-3.22,4.75Z"/><path class="cls-7" d="M149.91,168.88c-1.14,5.73-1.53,11.54-6.22,15.6-3.46,3-9.26,1.9-11.8-1.92-1.85-2.8.58-9.27,4-9.79a39.32,39.32,0,0,0,12.48-3.87C148.63,168.77,149,168.88,149.91,168.88Z"/><path class="cls-3" d="M132.7,171.13c-2.92.15-5.77.07-7.68-2.66-1.23-1.75-.84-2.7,1.26-2.79a48.57,48.57,0,0,0,15.28-2.74c2.38-.9,5.31-.36,8-.43.79,0,1.17.43,1.28,1.24a2.25,2.25,0,0,1-1.54,2.55A45.52,45.52,0,0,1,132.7,171.13Z"/><path class="cls-3" d="M140.8,91.57c-4.23-2.56-6.71-2.09-9.85,1.75a17.06,17.06,0,0,0-2.58,4.32c-.65,1.53-1.23,3.09-1.86,4.67-2.39-.46-3-1.66-2.35-3.81,1.6-5.07,3.69-9.79,8.43-12.75,1.84-1.14,3.78-1.44,5.67-.07A5.81,5.81,0,0,1,140.8,91.57Z"/><path class="cls-1" d="M130.07,104.82c-1.49-.39-2.19-1.09-1.85-2.44.93-3.63,2.35-7,5.15-9.63,1.42-1.32,3.08-2.27,5-1.29s2.41,2.72,2.44,4.66a10.49,10.49,0,0,1-1.44,5.25c-.23-1.25-.37-2.08-.55-2.91-.25-1.09-.59-2.16-1.8-2.53a3,3,0,0,0-3.13,1.17,14.44,14.44,0,0,0-3.22,6.19C130.55,103.76,130.32,104.2,130.07,104.82Z"/><path class="cls-3" d="M133.93,103c.24-1.55.56-3.33,2.45-3.86,1-.29,1.41.83,1.29,1.7-.22,1.69-.69,3.47-2.5,4C134.08,105.23,134,104,133.93,103Z"/><path class="cls-3" d="M173,99.58c-6-3.57-9.75-2.88-13.7,2.94-4.71,7-6.22,14.44-2.54,22.43a1.15,1.15,0,0,1,.07,1.32c-2.08-.24-3.3-1.68-4.28-3.32-3-5-2.85-10.44-1.47-15.88s3.76-10.12,8.29-13.49C165.25,89.17,171.67,91.9,173,99.58Z"/><path class="cls-1" d="M172.36,110.36c-.36-1.07-.66-2.17-1.1-3.2-1.35-3.1-3.81-3.73-6.5-1.73-4.27,3.19-7,14.39-2,18.67a2.29,2.29,0,0,1,.36.61c-2.14,2.08-3.2,2-4.7-.38-4.18-6.56-1.25-19.67,5.33-23.91,2.11-1.36,4.36-2,6.62-.57a6.6,6.6,0,0,1,3.16,6.45c-.12,1.36-.45,2.71-.68,4.07Z"/><path class="cls-3" d="M169.77,111.37c-.17,1.71-.62,3.4-2.35,4.36a1.35,1.35,0,0,1-2-.55c-.94-1.75-.42-3.43.47-5,.54-1,1.23-2,2.54-1.59S169.72,110.17,169.77,111.37Z"/><path class="cls-6" d="M156.19,257.76a15.39,15.39,0,0,1-4.06,10.33c-2.89,3.19-6.41,4.27-10.5,2.83a9.08,9.08,0,0,1-6.35-8.59,17.42,17.42,0,0,1,2.93-11c2.68-4,7.19-5.72,11.15-4.49C153.69,248.16,156.23,252.24,156.19,257.76Zm-8.41,8.73c4.12-1.55,6.24-7.59,3.93-11.16C151.28,259.43,150.75,263.37,147.78,266.49Z"/><path class="cls-4" d="M167,47.28c3.35.24,3.86.9,4.66.42s1.12-1.74,1.8-4.24c.36-1.34,0-1.87-1.32-2-2.83-.38-5.66-.8-8.49-1.23-.89-.14-1.76-.38-3.24-.7,2.9-6.2,5.66-12.1,8.41-18a6.71,6.71,0,0,0-5.7-.41,6.39,6.39,0,0,0-2.81,2.76A159.1,159.1,0,0,0,153,38.52c2.26,1.29,4.64,2.75,7.09,4.4q3.21,2.17,6,4.31Z"/></g></g></svg>